<svg width="49" height="49" viewBox="0 0 49 49" fill="none" xmlns="http://www.w3.org/2000/svg">
<circle cx="24.3522" cy="24.3523" r="16.9113" fill="url(#paint0_linear_62_1187)"/>
<g filter="url(#filter0_i_62_1187)">
<circle cx="24.3523" cy="24.3523" r="15.2202" fill="url(#paint1_linear_62_1187)"/>
</g>
<circle cx="24.3523" cy="24.3523" r="14.7202" stroke="#2E2E4D"/>
<path d="M24.4216 13.3599L17.5876 24.8309L24.4216 28.6137L31.2556 24.8309L24.4216 13.3599Z" fill="#17204D" fill-opacity="0.5"/>
<path d="M24.4216 21.3403L17.5876 24.8309L24.4216 28.6137L31.2556 24.8309L24.4216 21.3403Z" fill="#17204D" fill-opacity="0.5"/>
<path d="M24.4216 35.3446L17.5876 26.0142L24.4216 29.7969L31.2556 26.0142L24.4216 35.3446Z" fill="#17204D" fill-opacity="0.5"/>
<path d="M31.2554 26.0141L24.4214 29.7969V35.3446L31.2554 26.0141ZM31.2554 24.8309L24.4214 13.3599V28.6137L31.2554 24.8309Z" fill="#17204D" fill-opacity="0.5"/>
<path d="M24.4214 28.6137L31.2554 24.8309L24.4214 21.3403V28.6137Z" fill="#17204D" fill-opacity="0.5"/>
<ellipse cx="24.3522" cy="24.3523" rx="22.3229" ry="22.3229" fill="white" fill-opacity="0.08" stroke="white" stroke-opacity="0.2" stroke-width="0.5"/>
<ellipse cx="24.3522" cy="24.3524" rx="22.3229" ry="22.3229" fill="white" fill-opacity="0.08" stroke="white" stroke-opacity="0.2" stroke-width="0.5"/>
<path fill-rule="evenodd" clip-rule="evenodd" d="M2.02944 24.0917C2.02944 21.4503 2.02944 14.8651 9.84246 7.61011C8.72632 24.0917 17.2941 36.0718 29.375 36.0718C36.0672 36.0718 41.9475 32.9578 46.6753 28.9376C44.4575 39.0813 35.422 46.6752 24.6129 46.6752C12.1404 46.6752 2.02944 36.5643 2.02944 24.0917Z" fill="black" fill-opacity="0.1"/>
<path fill-rule="evenodd" clip-rule="evenodd" d="M44.646 24.5892C44.646 26.9905 44.646 32.9771 37.5432 39.5725C38.5579 24.5892 30.769 13.6982 19.7864 13.6982C13.7025 13.6982 8.35684 16.5292 4.05884 20.1839C6.07502 10.9623 14.2891 4.05872 24.1155 4.05872C35.4542 4.05872 44.646 13.2505 44.646 24.5892Z" fill="white" fill-opacity="0.1"/>
<path d="M43.6383 23.2081C43.6383 14.7128 37.0357 5.58073 26.3816 5.07341C24.3114 4.97483 19.2788 6.08809 18.2642 11.1615C28.2797 11.1615 38.5577 20.4249 38.5577 30.4404C42.6165 29.4257 43.6383 25.7988 43.6383 23.2081Z" fill="url(#paint2_linear_62_1187)" fill-opacity="0.4"/>
<defs>
<filter id="filter0_i_62_1187" x="9.13208" y="9.13208" width="30.4404" height="30.4404" filterUnits="userSpaceOnUse" color-interpolation-filters="sRGB">
<feFlood flood-opacity="0" result="BackgroundImageFix"/>
<feBlend mode="normal" in="SourceGraphic" in2="BackgroundImageFix" result="shape"/>
<feColorMatrix in="SourceAlpha" type="matrix" values="0 0 0 0 0 0 0 0 0 0 0 0 0 0 0 0 0 0 127 0" result="hardAlpha"/>
<feOffset dy="2"/>
<feComposite in2="hardAlpha" operator="arithmetic" k2="-1" k3="1"/>
<feColorMatrix type="matrix" values="0 0 0 0 1 0 0 0 0 1 0 0 0 0 1 0 0 0 0.6 0"/>
<feBlend mode="normal" in2="shape" result="effect1_innerShadow_62_1187"/>
</filter>
<linearGradient id="paint0_linear_62_1187" x1="24.3522" y1="7.44098" x2="24.3522" y2="41.2636" gradientUnits="userSpaceOnUse">
<stop stop-color="#E1E6F0"/>
<stop offset="1" stop-color="#939CCC"/>
</linearGradient>
<linearGradient id="paint1_linear_62_1187" x1="24.3523" y1="9.13208" x2="24.3523" y2="39.5724" gradientUnits="userSpaceOnUse">
<stop stop-color="#E1E6F0"/>
<stop offset="1" stop-color="#939CCC"/>
</linearGradient>
<linearGradient id="paint2_linear_62_1187" x1="36.3771" y1="8.70032" x2="24.46" y2="23.2081" gradientUnits="userSpaceOnUse">
<stop stop-color="white"/>
<stop offset="1" stop-color="white" stop-opacity="0"/>
</linearGradient>
</defs>
</svg>
